<svg width="26" height="27" viewBox="0 0 26 27" fill="none" xmlns="http://www.w3.org/2000/svg">
<path d="M15.9096 12.9721L6.91602 11.3877V23.095C6.91591 23.2223 6.94092 23.3483 6.98961 23.4658C7.03831 23.5834 7.10973 23.6902 7.19978 23.7801C7.28983 23.87 7.39674 23.9412 7.51438 23.9897C7.63203 24.0382 7.75808 24.063 7.88533 24.0627H23.4041C23.5315 24.0632 23.6577 24.0386 23.7755 23.9902C23.8934 23.9418 24.0005 23.8706 24.0907 23.7807C24.1809 23.6907 24.2525 23.5839 24.3013 23.4662C24.3501 23.3485 24.3751 23.2224 24.375 23.095V18.7814L15.9096 12.9721Z" fill="#185C37"/>
<path d="M15.9096 2.9375H7.88533C7.75808 2.93718 7.63203 2.96198 7.51438 3.01048C7.39674 3.05898 7.28983 3.13022 7.19978 3.22012C7.10973 3.31002 7.03831 3.41681 6.98961 3.53437C6.94092 3.65193 6.91591 3.77795 6.91602 3.90519V8.21875L15.9096 13.5L20.6716 15.0844L24.375 13.5V8.21875L15.9096 2.9375Z" fill="#21A366"/>
<path d="M6.91602 8.21875H15.9096V13.5H6.91602V8.21875Z" fill="#107C41"/>
<path opacity="0.1" d="M13.3526 7.1626H6.91602V20.3657H13.3526C13.6091 20.3644 13.8548 20.2622 14.0364 20.081C14.2179 19.8999 14.3208 19.6545 14.3228 19.398V8.13029C14.3208 7.87381 14.2179 7.62842 14.0364 7.44729C13.8548 7.26616 13.6091 7.16387 13.3526 7.1626Z" fill="black"/>
<path opacity="0.2" d="M12.8237 7.69043H6.91602V20.8936H12.8237C13.0802 20.8923 13.3258 20.79 13.5074 20.6089C13.689 20.4277 13.7919 20.1823 13.7938 19.9259V8.65812C13.7919 8.40164 13.689 8.15625 13.5074 7.97512C13.3258 7.79399 13.0802 7.6917 12.8237 7.69043Z" fill="black"/>
<path opacity="0.2" d="M12.8237 7.69043H6.91602V19.8373H12.8237C13.0802 19.836 13.3258 19.7337 13.5074 19.5526C13.689 19.3715 13.7919 19.1261 13.7938 18.8696V8.65812C13.7919 8.40164 13.689 8.15625 13.5074 7.97512C13.3258 7.79399 13.0802 7.6917 12.8237 7.69043Z" fill="black"/>
<path opacity="0.2" d="M12.2948 7.69043H6.91602V19.8373H12.2948C12.5512 19.836 12.7969 19.7337 12.9785 19.5526C13.1601 19.3715 13.263 19.1261 13.2649 18.8696V8.65812C13.263 8.40164 13.1601 8.15625 12.9785 7.97512C12.7969 7.79399 12.5512 7.6917 12.2948 7.69043Z" fill="black"/>
<path d="M2.59513 7.69044H12.2948C12.5517 7.69022 12.7982 7.79202 12.9801 7.97348C13.162 8.15493 13.2644 8.40119 13.2649 8.65812V18.3415C13.2644 18.5984 13.162 18.8447 12.9801 19.0261C12.7982 19.2076 12.5517 19.3094 12.2948 19.3092H2.59513C2.46781 19.3096 2.34167 19.2849 2.22393 19.2364C2.1062 19.188 1.99919 19.1168 1.90905 19.0269C1.81891 18.9369 1.74742 18.8301 1.69868 18.7125C1.64993 18.5949 1.62489 18.4688 1.625 18.3415V8.65812C1.62489 8.53081 1.64993 8.40473 1.69868 8.28711C1.74742 8.1695 1.81891 8.06267 1.90905 7.97276C1.99919 7.88285 2.1062 7.81163 2.22393 7.76318C2.34167 7.71473 2.46781 7.69001 2.59513 7.69044Z" fill="url(#paint0_linear_108_277)"/>
<path d="M4.63135 16.6467L6.67154 13.4909L4.80279 10.353H6.30347L7.32316 12.3623C7.41741 12.5525 7.48566 12.6938 7.51654 12.7881H7.53035C7.59697 12.6359 7.66739 12.488 7.7416 12.3445L8.83197 10.3563H10.2132L8.29654 13.4763L10.262 16.6491H8.79216L7.61404 14.4464C7.55949 14.3516 7.51301 14.2524 7.4751 14.1498H7.4556C7.42116 14.2498 7.37536 14.3455 7.3191 14.435L6.10604 16.6467H4.63135Z" fill="white"/>
<path d="M23.405 2.93751H15.9097V8.21876H24.3751V3.90519C24.3752 3.77788 24.3502 3.6518 24.3014 3.53418C24.2527 3.41657 24.1812 3.30974 24.0911 3.21983C24.0009 3.12992 23.8939 3.0587 23.7762 3.01025C23.6584 2.9618 23.5323 2.93708 23.405 2.93751Z" fill="#33C481"/>
<path d="M15.9097 13.5H24.3751V18.7812H15.9097V13.5Z" fill="#107C41"/>
<defs>
<linearGradient id="paint0_linear_108_277" x1="3.65138" y1="6.92994" x2="11.2385" y2="20.0697" gradientUnits="userSpaceOnUse">
<stop stop-color="#18884F"/>
<stop offset="0.5" stop-color="#117E43"/>
<stop offset="1" stop-color="#0B6631"/>
</linearGradient>
</defs>
</svg>
