<svg width="24" height="24" viewBox="0 0 24 24" fill="none" xmlns="http://www.w3.org/2000/svg">
<path d="M2.75 21.25L21.25 2.75" stroke="black" stroke-width="1.5" stroke-linecap="round"/>
<path d="M14.625 12C14.625 12.5192 14.471 13.0266 14.1826 13.4583C13.8941 13.8899 13.4842 14.2263 13.0045 14.4249C12.5249 14.6236 11.9972 14.6756 11.488 14.5743C10.9789 14.473 10.5112 14.2231 10.144 13.856L13.856 10.144C14.331 10.619 14.625 11.275 14.625 12Z" fill="black" stroke="black" stroke-width="1.5" stroke-linecap="round"/>
<path d="M6.92419 17.076C8.28819 18.069 9.98119 18.81 12.0002 18.81C16.8132 18.81 19.7712 14.611 20.8202 12.808C20.9633 12.5629 21.0386 12.2841 21.0384 12.0003C21.0382 11.7165 20.9626 11.4379 20.8192 11.193C20.2102 10.147 18.9592 8.29495 17.0772 6.92295M14.2672 5.51395C13.531 5.2978 12.7675 5.18868 12.0002 5.18995C7.19219 5.18995 4.23219 9.38695 3.18219 11.191C3.03859 11.4362 2.96289 11.7153 2.96289 11.9995C2.96289 12.2836 3.03859 12.5627 3.18219 12.808C3.50819 13.368 4.01819 14.158 4.71019 14.981" stroke="black" stroke-width="1.5" stroke-linecap="round"/>
</svg>
