<svg width="83" height="13" viewBox="0 0 83 13" fill="none" xmlns="http://www.w3.org/2000/svg">
<path d="M1.995 12V3.03C1.995 2.58 2.08 2.195 2.25 1.875C2.43 1.545 2.675 1.295 2.985 1.125C3.305 0.945 3.665 0.855 4.065 0.855C4.405 0.855 4.705 0.915 4.965 1.035C5.225 1.155 5.435 1.315 5.595 1.515L5.175 2.37C5.035 2.22 4.88 2.11 4.71 2.04C4.54 1.97 4.365 1.935 4.185 1.935C3.965 1.935 3.775 1.97 3.615 2.04C3.455 2.11 3.335 2.23 3.255 2.4C3.175 2.56 3.135 2.77 3.135 3.03V12H2.58C2.48 12 2.38 12 2.28 12C2.18 12 2.085 12 1.995 12ZM0.6 5.265V4.215H5.145V5.265H0.6ZM9.95203 12.15C9.18203 12.15 8.49203 11.975 7.88203 11.625C7.28203 11.265 6.80703 10.78 6.45703 10.17C6.10703 9.55 5.93203 8.845 5.93203 8.055C5.93203 7.265 6.10703 6.565 6.45703 5.955C6.80703 5.345 7.28203 4.865 7.88203 4.515C8.49203 4.165 9.18203 3.99 9.95203 3.99C10.722 3.99 11.407 4.165 12.007 4.515C12.617 4.865 13.092 5.345 13.432 5.955C13.782 6.565 13.957 7.265 13.957 8.055C13.957 8.845 13.782 9.55 13.432 10.17C13.092 10.78 12.617 11.265 12.007 11.625C11.407 11.975 10.722 12.15 9.95203 12.15ZM9.95203 11.1C10.502 11.1 10.992 10.97 11.422 10.71C11.862 10.44 12.202 10.075 12.442 9.615C12.692 9.155 12.812 8.635 12.802 8.055C12.812 7.465 12.692 6.945 12.442 6.495C12.202 6.045 11.862 5.69 11.422 5.43C10.992 5.17 10.502 5.04 9.95203 5.04C9.40203 5.04 8.90703 5.17 8.46703 5.43C8.03703 5.69 7.69703 6.05 7.44703 6.51C7.19703 6.96 7.07703 7.475 7.08703 8.055C7.07703 8.635 7.19703 9.155 7.44703 9.615C7.69703 10.075 8.03703 10.44 8.46703 10.71C8.90703 10.97 9.40203 11.1 9.95203 11.1ZM15.6255 12V4.125H16.7655L16.7805 6.405L16.6455 6.015C16.7455 5.655 16.9155 5.32 17.1555 5.01C17.4055 4.7 17.7055 4.455 18.0555 4.275C18.4055 4.085 18.7905 3.99 19.2105 3.99C19.3805 3.99 19.5405 4.005 19.6905 4.035C19.8405 4.055 19.9655 4.085 20.0655 4.125L19.7655 5.37C19.6255 5.32 19.4805 5.28 19.3305 5.25C19.1905 5.21 19.0555 5.19 18.9255 5.19C18.6155 5.19 18.3255 5.255 18.0555 5.385C17.7955 5.505 17.5705 5.67 17.3805 5.88C17.1905 6.09 17.0405 6.33 16.9305 6.6C16.8305 6.86 16.7805 7.13 16.7805 7.41V12H15.6255ZM25.8757 12V1.5H29.9857C30.5557 1.5 31.0607 1.635 31.5007 1.905C31.9507 2.175 32.3057 2.545 32.5657 3.015C32.8257 3.485 32.9557 4.02 32.9557 4.62C32.9557 5.23 32.8257 5.78 32.5657 6.27C32.3057 6.76 31.9507 7.15 31.5007 7.44C31.0607 7.73 30.5557 7.875 29.9857 7.875H27.0607V12H25.8757ZM27.0607 6.72H29.9857C30.3257 6.72 30.6257 6.63 30.8857 6.45C31.1457 6.26 31.3507 6.005 31.5007 5.685C31.6607 5.365 31.7407 5.01 31.7407 4.62C31.7407 4.24 31.6607 3.905 31.5007 3.615C31.3507 3.315 31.1457 3.08 30.8857 2.91C30.6257 2.73 30.3257 2.64 29.9857 2.64H27.0607V6.72ZM39.5899 12V6.75C39.5899 6.24 39.4099 5.83 39.0499 5.52C38.6899 5.21 38.2149 5.055 37.6249 5.055C37.1349 5.055 36.6899 5.155 36.2899 5.355C35.8899 5.555 35.5349 5.855 35.2249 6.255L34.4749 5.505C34.9249 4.995 35.4149 4.615 35.9449 4.365C36.4849 4.115 37.0699 3.99 37.6999 3.99C38.2999 3.99 38.8199 4.09 39.2599 4.29C39.6999 4.49 40.0349 4.78 40.2649 5.16C40.5049 5.54 40.6249 6 40.6249 6.54V12H39.5899ZM36.8899 12.15C36.3799 12.15 35.9249 12.05 35.5249 11.85C35.1249 11.65 34.8049 11.375 34.5649 11.025C34.3349 10.665 34.2199 10.245 34.2199 9.765C34.2199 9.375 34.2899 9.03 34.4299 8.73C34.5799 8.43 34.7949 8.18 35.0749 7.98C35.3549 7.78 35.7099 7.63 36.1399 7.53C36.5699 7.42 37.0599 7.365 37.6099 7.365H40.0999L40.0099 8.31H37.4599C37.1099 8.31 36.7999 8.34 36.5299 8.4C36.2699 8.46 36.0449 8.555 35.8549 8.685C35.6749 8.805 35.5349 8.955 35.4349 9.135C35.3449 9.305 35.2999 9.51 35.2999 9.75C35.2999 10.03 35.3699 10.28 35.5099 10.5C35.6599 10.71 35.8549 10.875 36.0949 10.995C36.3449 11.105 36.6249 11.16 36.9349 11.16C37.3449 11.16 37.7299 11.09 38.0899 10.95C38.4499 10.8 38.7699 10.6 39.0499 10.35C39.3399 10.09 39.5699 9.8 39.7399 9.48L40.0549 10.2C39.8349 10.58 39.5599 10.92 39.2299 11.22C38.8999 11.51 38.5349 11.74 38.1349 11.91C37.7449 12.07 37.3299 12.15 36.8899 12.15ZM42.6373 12V4.125H43.7773L43.7923 6.405L43.6573 6.015C43.7573 5.655 43.9273 5.32 44.1673 5.01C44.4173 4.7 44.7173 4.455 45.0673 4.275C45.4173 4.085 45.8023 3.99 46.2223 3.99C46.3923 3.99 46.5523 4.005 46.7023 4.035C46.8523 4.055 46.9773 4.085 47.0773 4.125L46.7773 5.37C46.6373 5.32 46.4923 5.28 46.3423 5.25C46.2023 5.21 46.0673 5.19 45.9373 5.19C45.6273 5.19 45.3373 5.255 45.0673 5.385C44.8073 5.505 44.5823 5.67 44.3923 5.88C44.2023 6.09 44.0523 6.33 43.9423 6.6C43.8423 6.86 43.7923 7.13 43.7923 7.41V12H42.6373ZM49.6363 12V2.115H50.7763V12H49.6363ZM47.8213 5.235V4.125H52.7413V5.235H47.8213ZM54.107 12V4.125H55.247V5.805L55.022 5.94C55.132 5.59 55.332 5.27 55.622 4.98C55.912 4.69 56.262 4.455 56.672 4.275C57.082 4.085 57.507 3.99 57.947 3.99C58.537 3.99 59.032 4.105 59.432 4.335C59.842 4.555 60.152 4.9 60.362 5.37C60.572 5.84 60.677 6.435 60.677 7.155V12H59.537V7.23C59.537 6.72 59.462 6.3 59.312 5.97C59.172 5.64 58.957 5.4 58.667 5.25C58.387 5.1 58.032 5.03 57.602 5.04C57.262 5.04 56.947 5.095 56.657 5.205C56.377 5.315 56.132 5.465 55.922 5.655C55.712 5.835 55.547 6.04 55.427 6.27C55.307 6.49 55.247 6.71 55.247 6.93V12H54.692C54.602 12 54.507 12 54.407 12C54.307 12 54.207 12 54.107 12ZM66.3492 12.15C65.5592 12.15 64.8592 11.98 64.2492 11.64C63.6392 11.29 63.1592 10.81 62.8092 10.2C62.4692 9.59 62.2992 8.895 62.2992 8.115C62.2992 7.505 62.3942 6.95 62.5842 6.45C62.7842 5.94 63.0542 5.505 63.3942 5.145C63.7442 4.775 64.1592 4.49 64.6392 4.29C65.1192 4.09 65.6442 3.99 66.2142 3.99C66.7142 3.99 67.1792 4.08 67.6092 4.26C68.0492 4.44 68.4292 4.7 68.7492 5.04C69.0692 5.37 69.3142 5.765 69.4842 6.225C69.6542 6.675 69.7292 7.175 69.7092 7.725L69.6942 8.295H63.1242L62.8842 7.365H68.7492L68.5392 7.62L68.5542 7.245C68.5342 6.815 68.4142 6.435 68.1942 6.105C67.9742 5.775 67.6892 5.515 67.3392 5.325C66.9992 5.135 66.6242 5.04 66.2142 5.04C65.6342 5.04 65.1342 5.165 64.7142 5.415C64.2942 5.655 63.9742 6 63.7542 6.45C63.5442 6.89 63.4342 7.42 63.4242 8.04C63.4342 8.66 63.5642 9.2 63.8142 9.66C64.0642 10.11 64.4142 10.465 64.8642 10.725C65.3242 10.975 65.8542 11.1 66.4542 11.1C66.8842 11.1 67.2842 11.03 67.6542 10.89C68.0242 10.74 68.3992 10.495 68.7792 10.155L69.3492 10.965C69.1092 11.205 68.8242 11.415 68.4942 11.595C68.1742 11.765 67.8292 11.9 67.4592 12C67.0892 12.1 66.7192 12.15 66.3492 12.15ZM71.3482 12V4.125H72.4882L72.5032 6.405L72.3682 6.015C72.4682 5.655 72.6382 5.32 72.8782 5.01C73.1282 4.7 73.4282 4.455 73.7782 4.275C74.1282 4.085 74.5132 3.99 74.9332 3.99C75.1032 3.99 75.2632 4.005 75.4132 4.035C75.5632 4.055 75.6882 4.085 75.7882 4.125L75.4882 5.37C75.3482 5.32 75.2032 5.28 75.0532 5.25C74.9132 5.21 74.7782 5.19 74.6482 5.19C74.3382 5.19 74.0482 5.255 73.7782 5.385C73.5182 5.505 73.2932 5.67 73.1032 5.88C72.9132 6.09 72.7632 6.33 72.6532 6.6C72.5532 6.86 72.5032 7.13 72.5032 7.41V12H71.3482ZM79.5693 12.15C78.9093 12.15 78.3143 12.035 77.7843 11.805C77.2543 11.565 76.8243 11.225 76.4943 10.785L77.2743 10.11C77.5643 10.47 77.9093 10.74 78.3093 10.92C78.7093 11.1 79.1643 11.19 79.6743 11.19C79.9343 11.19 80.1643 11.16 80.3643 11.1C80.5643 11.03 80.7343 10.94 80.8743 10.83C81.0143 10.71 81.1143 10.575 81.1743 10.425C81.2443 10.265 81.2793 10.095 81.2793 9.915C81.2793 9.585 81.1493 9.32 80.8893 9.12C80.7493 9.02 80.5543 8.925 80.3043 8.835C80.0643 8.735 79.7693 8.64 79.4193 8.55C78.8793 8.42 78.4243 8.27 78.0543 8.1C77.6943 7.92 77.4093 7.715 77.1993 7.485C77.0393 7.305 76.9193 7.11 76.8393 6.9C76.7593 6.69 76.7193 6.45 76.7193 6.18C76.7193 5.75 76.8393 5.37 77.0793 5.04C77.3193 4.71 77.6443 4.455 78.0543 4.275C78.4743 4.085 78.9493 3.99 79.4793 3.99C79.8393 3.99 80.1943 4.04 80.5443 4.14C80.9043 4.24 81.2343 4.385 81.5343 4.575C81.8343 4.765 82.0943 4.995 82.3143 5.265L81.6393 5.985C81.4393 5.775 81.2193 5.595 80.9793 5.445C80.7493 5.285 80.5093 5.165 80.2593 5.085C80.0093 4.995 79.7643 4.95 79.5243 4.95C79.2643 4.95 79.0293 4.98 78.8193 5.04C78.6093 5.09 78.4293 5.17 78.2793 5.28C78.1393 5.38 78.0343 5.505 77.9643 5.655C77.8943 5.795 77.8593 5.96 77.8593 6.15C77.8693 6.29 77.9043 6.43 77.9643 6.57C78.0243 6.7 78.1093 6.81 78.2193 6.9C78.3593 7.01 78.5593 7.12 78.8193 7.23C79.0793 7.33 79.3943 7.42 79.7643 7.5C80.2443 7.62 80.6493 7.755 80.9793 7.905C81.3093 8.045 81.5743 8.215 81.7743 8.415C81.9843 8.595 82.1343 8.805 82.2243 9.045C82.3143 9.285 82.3593 9.56 82.3593 9.87C82.3593 10.32 82.2393 10.72 81.9993 11.07C81.7593 11.41 81.4293 11.675 81.0093 11.865C80.5893 12.055 80.1093 12.15 79.5693 12.15Z" fill="black"/>
</svg>
