<svg width="156" height="56" viewBox="0 0 156 56" fill="none" xmlns="http://www.w3.org/2000/svg">
<path d="M31 1.79604V7.51703C31 7.90577 30.6683 8.20704 30.2856 8.16817C20.6119 7.18336 8.9416 9.11735 7.00878 20.6273C6.14124 25.7879 8.64817 32.7302 12.8072 36.0734C15.984 38.6261 19.6806 39.2449 19.6806 39.2449C21.3518 39.5267 22.7807 39.4522 23.7758 39.3291C23.7918 33.1157 23.8077 26.9023 23.8237 20.6889C23.8237 20.3261 24.1139 20.0345 24.468 20.0345H30.3493C30.7066 20.0345 30.9936 20.3293 30.9936 20.6889V45.3027C30.9936 45.6656 30.7034 45.9571 30.3462 45.9571C23.6546 45.9506 17.0716 46.5726 10.9478 43.2845C-4.10016 35.2019 -3.71104 9.61299 12.584 3.15664C18.2262 0.921371 24.401 0.80475 30.3844 1.14166C30.7257 1.1611 30.9936 1.44941 30.9936 1.79604H31Z" fill="white"/>
<path d="M66.0514 22.1832C62.2945 15.4378 54.1979 12.6467 47.1497 14.6207C40.1535 16.5818 35.1856 22.9555 35 30.3098L35.0098 55.3495C35.0098 55.7084 35.306 56 35.6674 56H41.026C41.3906 56 41.6836 55.7084 41.6836 55.3463V43.1052C41.6836 43.0604 41.7325 43.0347 41.7683 43.0604C42.657 43.6884 43.9853 44.4928 45.714 45.092C50.5745 46.7679 57.5414 46.4379 62.5745 41.9132C67.8126 37.2058 69.8311 28.9671 66.0514 22.1832ZM51.6065 38.8337C46.4204 38.8337 42.2175 34.6967 42.2175 29.592C42.2175 24.4873 46.4204 20.3503 51.6065 20.3503C56.7926 20.3503 60.9955 24.4873 60.9955 29.592C60.9955 34.6967 56.7926 38.8337 51.6065 38.8337Z" fill="white"/>
<path d="M85.8263 14.116C78.9928 14.8835 73.1606 20.8056 72.1785 27.5463C70.0926 41.8559 86.7541 51.6248 98.0345 42.3931C110.505 32.1861 101.973 12.303 85.8263 14.116ZM88.0241 38.8213C82.9278 38.8213 78.7976 34.6931 78.7976 29.5992C78.7976 24.5053 82.9278 20.3771 88.0241 20.3771C93.1205 20.3771 97.2506 24.5053 97.2506 29.5992C97.2506 34.6931 93.1205 38.8213 88.0241 38.8213Z" fill="white"/>
<path d="M134.349 46H128.468C128.111 46 127.824 45.7088 127.824 45.3535V25.1527C127.824 24.9799 127.62 24.5031 127.381 24.023C127.381 24.023 127.078 23.3797 126.734 22.8613C126.236 22.1156 124.227 20.3074 121.385 20.3874C119.124 20.4482 117.08 21.6803 115.976 23.4213C115.504 24.167 115.281 24.8807 115.169 25.364V45.3535C115.169 45.712 114.879 46 114.525 46H108.644C108.287 46 108 45.7088 108 45.3535V25.9976C108 24.7079 109.19 21.8435 109.863 20.669C114.988 11.7239 128.194 11.7847 133.211 20.8066C133.849 21.9555 135 24.9703 135 26.2089V45.3535C135 45.712 134.71 46 134.356 46H134.349Z" fill="white"/>
<path d="M135.226 0.611808V1.64075C135.232 1.96449 135.565 2.22413 135.889 2.22093C138.021 2.21131 144.999 2.64404 149.708 8.36891C153.468 12.943 153.589 17.9307 153.49 19.9308C153.474 20.2674 153.743 20.5591 154.08 20.5655H155.391C155.715 20.5719 155.968 20.3379 155.984 20.0142C156.077 17.8441 155.923 11.7987 151.217 6.47131C145.778 0.3105 138.162 -0.0388903 135.857 0.00278006C135.527 0.00919089 135.222 0.278445 135.229 0.611808H135.226Z" fill="white"/>
<path d="M135.206 5.59981L135.193 6.59028C135.19 6.93646 135.479 7.21534 135.828 7.1929C137.469 7.08712 141.675 7.18008 145.082 10.4945C148.579 13.8986 148.707 18.242 148.624 19.8351C148.608 20.1524 148.816 20.5434 149.131 20.5787L150.599 20.5979C150.938 20.6364 151.179 20.396 151.198 20.0562C151.304 18.2099 151.185 13.0332 147.031 8.95588C142.806 4.81127 137.524 4.85936 135.751 5.01001C135.443 5.03565 135.206 5.28888 135.203 5.5966L135.206 5.59981Z" fill="white"/>
<path d="M135.238 10.3084L135.231 11.347C135.244 11.6643 135.549 11.9208 135.866 11.9208C137.004 11.9208 139.498 12.1708 141.508 14.2126C143.54 16.2801 143.735 18.8156 143.703 19.9824C143.694 20.3158 143.96 20.5882 144.29 20.5946C144.697 20.601 145.101 20.6074 145.508 20.6106C145.822 20.6139 146.088 20.3734 146.111 20.0593C146.21 18.6682 146.146 15.0909 143.287 12.3118C140.546 9.64813 137.148 9.57761 135.776 9.67698C135.456 9.69942 135.225 9.9847 135.238 10.3052V10.3084Z" fill="white"/>
</svg>
