<svg width="22" height="22" viewBox="0 0 22 22" fill="none" xmlns="http://www.w3.org/2000/svg">
<path d="M9.625 2.84375C9.78247 2.84375 9.93357 2.90623 10.0449 3.01758C10.1563 3.12893 10.2188 3.28003 10.2188 3.4375C10.2188 3.59497 10.1563 3.74607 10.0449 3.85742C9.93357 3.96877 9.78247 4.03125 9.625 4.03125H4.71875V17.9688H9.625C9.78247 17.9688 9.93357 18.0312 10.0449 18.1426C10.1563 18.2539 10.2188 18.405 10.2188 18.5625C10.2188 18.72 10.1563 18.8711 10.0449 18.9824C9.93357 19.0938 9.78247 19.1562 9.625 19.1562H4.125C3.96753 19.1562 3.81643 19.0938 3.70508 18.9824C3.59373 18.8711 3.53125 18.72 3.53125 18.5625V3.4375C3.53125 3.28003 3.59373 3.12893 3.70508 3.01758C3.81643 2.90623 3.96753 2.84375 4.125 2.84375H9.625ZM15.8125 6.96875C15.97 6.96875 16.121 7.03119 16.2324 7.14258L19.6699 10.5801L19.7441 10.6699C19.7657 10.7021 19.7839 10.7365 19.7988 10.7725C19.8287 10.8445 19.8438 10.922 19.8438 11C19.8438 11.078 19.8287 11.1555 19.7988 11.2275C19.7839 11.2635 19.7657 11.2979 19.7441 11.3301L19.6699 11.4199L16.2324 14.8574C16.121 14.9688 15.97 15.0312 15.8125 15.0312C15.655 15.0312 15.504 14.9688 15.3926 14.8574C15.2812 14.746 15.2188 14.595 15.2188 14.4375C15.2188 14.28 15.2812 14.129 15.3926 14.0176L17.8164 11.5938H9.625C9.46753 11.5938 9.31643 11.5313 9.20508 11.4199C9.09373 11.3086 9.03125 11.1575 9.03125 11C9.03125 10.8425 9.09373 10.6914 9.20508 10.5801C9.31643 10.4687 9.46753 10.4062 9.625 10.4062H17.8164L15.3926 7.98242C15.2812 7.87104 15.2188 7.72002 15.2188 7.5625C15.2188 7.40498 15.2812 7.25396 15.3926 7.14258C15.504 7.03119 15.655 6.96875 15.8125 6.96875Z" fill="white" stroke="white" stroke-width="0.5"/>
</svg>
